<?xml version="1.0" encoding="UTF-8" standalone="no"?>
<!-- Created with Inkscape (http://www.inkscape.org/) -->

<svg
   width="100"
   height="70"
   viewBox="0 0 26.458333 18.520834"
   version="1.1"
   id="svg5"
   inkscape:version="1.1.2 (76b9e6a115, 2022-02-25)"
   sodipodi:docname="logo.svg"
   xmlns:inkscape="http://www.inkscape.org/namespaces/inkscape"
   xmlns:sodipodi="http://sodipodi.sourceforge.net/DTD/sodipodi-0.dtd"
   xmlns="http://www.w3.org/2000/svg"
   xmlns:svg="http://www.w3.org/2000/svg">
  <sodipodi:namedview
     id="namedview7"
     pagecolor="#ffffff"
     bordercolor="#666666"
     borderopacity="1.0"
     inkscape:pageshadow="2"
     inkscape:pageopacity="0.0"
     inkscape:pagecheckerboard="0"
     inkscape:document-units="mm"
     showgrid="false"
     units="px"
     width="100px"
     inkscape:zoom="5.59"
     inkscape:cx="50"
     inkscape:cy="50"
     inkscape:window-width="1600"
     inkscape:window-height="836"
     inkscape:window-x="0"
     inkscape:window-y="27"
     inkscape:window-maximized="1"
     inkscape:current-layer="layer1"
     inkscape:snap-page="true" />
  <defs
     id="defs2" />
  <g
     inkscape:label="Layer 1"
     inkscape:groupmode="layer"
     id="layer1">
    <path
       style="fill:#252223;stroke-width:1"
       d="m 0.60102816,17.931531 c -0.04316,-0.112473 -0.057375,-1.234107 -0.031588,-2.492528 l 0.046884,-2.288034 0.39735974,-0.04571 0.3973603,-0.04571 v -1.218603 c 0,-1.098457 0.026913,-1.218609 0.2729812,-1.218609 0.1501396,0 0.4235539,-0.121921 0.6075868,-0.270947 L 2.6262172,10.080449 2.046914,9.784904 C 1.3699082,9.439527 0.39958246,8.264018 0.39958246,7.789242 c 0,-0.181094 0.124492,-0.544302 0.2766495,-0.807128 C 0.82838886,6.719288 1.0347434,6.224584 1.1347971,5.882767 1.2348508,5.5409554 1.5120394,5.0703254 1.7507712,4.8369184 2.187977,4.4094694 2.3845587,4.3502434 3.9054059,4.1877824 4.7240264,4.1003424 4.7475347,4.0849924 5.2981316,3.2786174 6.0540737,2.1715104 6.5039189,1.7812354 7.1515571,1.6706294 8.3584307,1.4645234 9.329183,2.0719854 9.640498,3.2281234 9.9434815,4.3533174 9.2152774,5.4918214 7.89199,5.961807 7.2445238,6.191768 7.1753505,6.26113 7.095506,6.760449 7.000914,7.351996 6.2303129,8.735047 5.6639304,9.329795 5.3050804,9.706618 5.1994956,10.246518 5.4539033,10.403752 5.64347,10.520911 6.0676492,10.281323 7.1908232,9.422684 8.0953441,8.731208 8.1327059,8.677388 8.2022844,7.965699 l 0.072247,-0.738978 0.9392143,-0.07225 0.9392133,-0.07225 2.167417,-1.7716536 c 1.19208,-0.974416 2.348712,-2.035387 2.570294,-2.357719 0.394252,-0.573503 1.110561,-1.000182 1.679125,-1.000182 0.511209,0 0.490925,0.306773 -0.04975,0.752445 -0.291458,0.240244 -0.493813,0.472925 -0.449674,0.517062 0.04414,0.04413 0.239244,-0.06912 0.433565,-0.251669 0.397267,-0.373213 0.786023,-0.313522 0.904321,0.138852 0.04146,0.158538 0.109292,0.288259 0.150741,0.288259 0.04145,0 0.357524,-0.26009 0.702392,-0.577982 0.699201,-0.644499 1.253096,-0.751178 1.500455,-0.288985 0.08506,0.158943 0.300425,0.288985 0.47858,0.288985 0.178154,0 0.670064,0.26009 1.093133,0.577982 0.963387,0.723872 1.506691,0.757245 2.352569,0.144492 0.329124,-0.238414 0.742437,-0.433483 0.918476,-0.433483 0.474465,0 1.016389,0.493633 1.288483,1.173663 0.448098,1.119908 -0.01143,2.0313726 -1.395678,2.7683186 -0.480493,0.255803 -1.07608,0.573383 -1.323526,0.705736 -0.247445,0.132347 -0.736249,0.535138 -1.086233,0.895086 -0.540588,0.555984 -0.63633,0.742894 -0.63633,1.242283 0,0.323309 0.04251,0.63035 0.09448,0.682313 0.05196,0.05194 0.09448,0.636335 0.09448,1.298599 v 1.20412 h 1.517192 1.517192 v 2.528654 2.528655 h -11.99759 c -10.2119333,0 -12.00925694,-0.03042 -12.07605024,-0.204501 z M 3.4093631,17.183335 C 3.8885137,16.847727 3.7174839,16.618837 2.987559,16.618837 H 2.3502572 l -0.045628,-0.638634 c -0.068095,-0.95303 0.060462,-1.312039 0.4698256,-1.312039 0.1905432,0 0.3688664,0.06727 0.3962735,0.149495 0.030048,0.09014 0.1639143,0.06141 0.3371537,-0.07234 0.2846278,-0.219759 0.2841232,-0.224549 -0.053798,-0.510733 -0.4511423,-0.382071 -0.926967,-0.36501 -1.410083,0.05052 -0.3295944,0.283507 -0.4050208,0.483224 -0.4577367,1.212011 -0.053924,0.745499 -0.018672,0.917014 0.2420686,1.177754 0.1678514,0.16785 0.2564174,0.307253 0.1968138,0.309776 -0.059604,0.0027 0.017847,0.100065 0.1721116,0.216744 0.3644947,0.275693 0.8020118,0.269167 1.2121065,-0.01808 z m 1.203978,-0.105746 c 0.1812712,-0.323915 0.950815,-0.324718 1.0135709,-0.0011 0.048583,0.250528 0.6969436,0.392148 0.6969436,0.152188 0,-0.07508 -0.175053,-0.811967 -0.3890063,-1.637538 -0.3762428,-1.451792 -0.4021863,-1.501046 -0.7906836,-1.501046 -0.3611044,0 -0.4232546,0.07663 -0.6153095,0.7586 -0.4209964,1.494929 -0.628578,2.404941 -0.5634449,2.470077 0.1351261,0.135127 0.5168302,-0.007 0.6479298,-0.24127 z m 0.3252887,-1.169184 c 0.044454,-0.165562 0.082713,-0.398559 0.085015,-0.517772 0.00371,-0.192655 0.019748,-0.192655 0.1442546,0 0.2206093,0.341369 0.1723289,0.818804 -0.082802,0.818804 -0.1598632,0 -0.2033164,-0.08931 -0.1464676,-0.301032 z m 2.3702198,0.853723 c 0.068266,-0.86008 0.2382468,-0.89027 0.5771356,-0.102501 0.2879542,0.669369 0.4750798,0.785016 1.0055844,0.62148 0.021484,-0.0066 -0.097152,-0.279041 -0.2636328,-0.60537 L 8.3252433,16.08241 8.6249998,15.763333 C 8.9855509,15.379541 9.0140432,14.717332 8.6856198,14.354429 8.5059073,14.155848 8.2366118,14.090183 7.6019112,14.090183 H 6.7573391 v 0.765825 c 0,0.421201 0.081278,0.853385 0.180618,0.960408 0.1444943,0.155677 0.1444943,0.174196 0,0.09262 -0.1351856,-0.07633 -0.180618,0.102736 -0.180618,0.711869 0,0.697014 0.036301,0.806959 0.2528655,0.765923 0.1805879,-0.03424 0.2659504,-0.212785 0.2986451,-0.624702 z m 0.026465,-1.732727 c 0,-0.280613 0.074174,-0.361237 0.3323375,-0.361237 0.1827855,0 0.4052834,0.07295 0.4944392,0.1621 0.2613353,0.261335 0.043209,0.560369 -0.4087523,0.560369 -0.3495627,0 -0.4180244,-0.05916 -0.4180244,-0.361232 z m 2.7453954,1.652704 v -0.71349 h 0.50573 c 0.602198,0 1.083709,-0.417313 1.083709,-0.939214 0,-0.635848 -0.46672,-0.939218 -1.444945,-0.939218 H 9.3582375 v 1.565357 c 0,0.860948 0.029267,1.594624 0.065038,1.630395 0.035771,0.03577 0.1983271,0.07508 0.361236,0.08735 0.2616235,0.01971 0.2961985,-0.06098 0.2961985,-0.691182 z m 0,-1.652704 c 0,-0.329775 0.05291,-0.374344 0.397359,-0.334712 0.28579,0.03288 0.39736,0.126864 0.39736,0.334712 0,0.207843 -0.11157,0.301825 -0.39736,0.334707 -0.344444,0.03965 -0.397359,-0.0049 -0.397359,-0.334707 z m 3.730782,1.96419 c 0.04056,-0.265726 -0.02655,-0.302508 -0.551904,-0.302508 -0.53758,0 -0.593407,-0.03288 -0.551904,-0.325111 0.03306,-0.232778 0.159022,-0.338098 0.443534,-0.370832 0.280716,-0.03228 0.397359,-0.127738 0.397359,-0.325112 0,-0.215515 -0.101409,-0.279395 -0.443533,-0.279395 -0.377311,0 -0.436639,-0.04855 -0.39736,-0.325111 0.03709,-0.26115 0.152779,-0.333937 0.588028,-0.369959 0.42449,-0.03512 0.541854,-0.105549 0.541854,-0.325111 0,-0.246219 -0.105323,-0.280269 -0.866967,-0.280269 h -0.866967 v 1.625681 1.625688 l 0.830843,-0.02272 c 0.723343,-0.01977 0.836819,-0.06187 0.877017,-0.325231 z m 1.18203,-0.524462 0.07225,-0.846105 0.357627,0.767458 c 0.325074,0.697598 0.771122,1.090243 1.051194,0.925336 0.0596,-0.03512 0.108371,-0.775218 0.108371,-1.644725 v -1.58091 h -0.361236 c -0.34263,0 -0.361594,0.04282 -0.368186,0.830846 l -0.007,0.830841 -0.42885,-0.830841 c -0.347526,-0.673378 -0.496829,-0.830846 -0.787724,-0.830846 h -0.35892 v 1.565357 c 0,0.860948 0.03694,1.602302 0.0821,1.647455 0.04515,0.04517 0.191454,0.06638 0.325113,0.04719 0.186126,-0.02676 0.259926,-0.232997 0.31526,-0.881035 z m 3.298341,0.526034 c 0.02597,-0.175992 -0.03076,-0.413937 -0.126063,-0.52877 -0.122654,-0.147791 -0.125893,-0.208793 -0.01109,-0.208793 0.10026,0 0.162187,-0.303436 0.162187,-0.794715 0,-0.69839 0.03503,-0.794721 0.288988,-0.794721 0.192659,0 0.288989,-0.09633 0.288989,-0.288991 0,-0.261466 -0.09633,-0.28899 -1.011461,-0.28899 -0.915131,0 -1.011462,0.02752 -1.011462,0.28899 0,0.211928 0.09633,0.288991 0.361237,0.288991 0.358056,0 0.361236,0.01125 0.361236,1.276367 0,0.702005 0.03695,1.313311 0.0821,1.358464 0.184486,0.184491 0.571247,-0.009 0.615342,-0.307832 z m 1.614471,-0.335039 c 0,-0.38033 0.05635,-0.691509 0.125229,-0.691509 0.06888,0 0.254551,0.311179 0.412608,0.691509 0.216673,0.521365 0.36362,0.691509 0.597244,0.691509 0.371972,0 0.376866,-0.05374 0.07383,-0.811126 -0.22896,-0.572226 -0.226795,-0.596375 0.07225,-0.805834 0.376994,-0.264055 0.413831,-0.999374 0.06914,-1.380244 -0.179712,-0.198581 -0.449008,-0.264246 -1.083708,-0.264246 h -0.844571 v 1.630722 c 0,1.534398 0.01707,1.630728 0.28899,1.630728 0.248731,0 0.288988,-0.09633 0.288988,-0.691509 z m 0,-1.630723 c 0,-0.284032 0.07343,-0.361237 0.343545,-0.361237 0.445035,0 0.726701,0.316898 0.491085,0.552516 -0.09348,0.09347 -0.319507,0.169953 -0.502292,0.169953 -0.258164,0 -0.332338,-0.08062 -0.332338,-0.361232 z m 3.323373,1.666171 c 0,-0.464574 0.143768,-1.020448 0.427441,-1.652703 l 0.427439,-0.952686 h -0.351481 c -0.250116,0 -0.421242,0.134902 -0.593368,0.467758 l -0.241884,0.467752 -0.221525,-0.467752 c -0.155883,-0.329153 -0.320796,-0.467758 -0.556546,-0.467758 -0.184261,0 -0.33502,0.03064 -0.33502,0.06813 0,0.03746 0.162556,0.435695 0.361236,0.884945 0.218534,0.494147 0.361236,1.085607 0.361236,1.497229 0,0.769064 0.01684,0.801957 0.426273,0.832802 0.260914,0.01966 0.296199,-0.06108 0.296199,-0.677715 z M 4.5899196,12.572993 c 0.098934,-0.119207 0.2449019,-0.216744 0.324374,-0.216744 0.080603,0 0.064957,0.09584 -0.035383,0.216744 -0.1594662,0.192142 0.6030447,0.216739 6.7189934,0.216739 6.47801,0 6.886774,-0.01502 6.700561,-0.245967 -0.186749,-0.231632 -0.177481,-0.231632 0.158954,0 0.269887,0.185812 0.667449,0.245967 1.625563,0.245967 1.256522,0 1.268299,-0.0033 1.268299,-0.361231 0,-0.34718 -0.03796,-0.362209 -0.975338,-0.386179 l -0.975337,-0.02496 0.937917,-0.08343 c 0.738195,-0.06567 0.948141,-0.137273 0.985932,-0.336296 0.04481,-0.23599 -0.224333,-0.252865 -4.032507,-0.252865 -2.244288,0 -4.049865,-0.03064 -4.012395,-0.06813 0.03747,-0.03746 1.835001,-0.07388 3.99451,-0.08091 2.279709,-0.0074 3.961586,-0.06975 4.010325,-0.14861 0.05208,-0.08427 -3.653692,-0.135831 -9.762246,-0.135831 -6.8528555,0 -9.8307177,0.04642 -9.7952909,0.152706 0.034154,0.102452 1.5002378,0.156824 4.4552465,0.165223 2.7606377,0.0079 4.0268654,0.05199 3.3928834,0.118334 -0.5563038,0.0582 -2.5557462,0.113893 -4.443205,0.123767 -3.2953949,0.01726 -3.4317443,0.02911 -3.4317443,0.29863 0,0.225837 0.1199926,0.2907 0.614102,0.33197 l 0.6141014,0.05128 -0.6141014,0.119977 c -0.3658273,0.07147 -0.614102,0.200137 -0.614102,0.318252 0,0.299575 2.6399384,0.282705 2.8898898,-0.01846 z M 8.563518,12.062474 c 0.5563039,-0.0571 2.441956,-0.101584 4.190339,-0.09886 2.469154,0.0038 2.888537,0.02867 1.878429,0.111245 -1.742214,0.142412 -7.4632401,0.130741 -6.068768,-0.0124 z M 4.798155,10.410169 C 4.6438895,10.29349 4.2451645,10.195959 3.9120984,10.19343 3.579033,10.19073 3.2663384,10.12381 3.2172219,10.044339 3.0623431,9.793741 2.8921822,9.886734 2.8206207,10.261084 c -0.069034,0.361127 -0.068709,0.361231 1.0944809,0.361231 1.0540821,0 1.1371509,-0.01993 0.8830534,-0.212146 z m 10.360206,-0.08001 c -0.346435,-0.157201 -0.834104,-0.2923 -1.083708,-0.300219 -0.249606,-0.0079 -0.616385,-0.07072 -0.815065,-0.139545 -0.295754,-0.102463 -0.249916,-0.118803 0.252866,-0.09015 0.337755,0.01922 0.613594,5.47e-4 0.612974,-0.04107 C 14.122828,9.585199 13.274066,9.305509 12.464869,9.21198 11.612546,9.11346 11.607664,9.110369 12.17588,9.028767 L 12.753857,8.945757 11.701131,8.612443 C 10.524692,8.239967 9.7905598,8.275241 8.924754,8.745866 l -0.5057308,0.274901 0.6502251,0.01993 c 0.6208821,0.019 0.6061068,0.02774 -0.3274038,0.194124 C 8.2041486,9.330641 7.6537795,9.519476 7.5188019,9.654449 7.287914,9.885338 7.3372244,9.900979 8.3519366,9.918745 l 1.0785483,0.0189 -1.4061023,0.166245 c -0.7733563,0.09144 -1.4853532,0.245498 -1.5822148,0.342358 -0.1384865,0.138491 0.8410747,0.175436 4.5849812,0.17294 l 4.761092,-0.0033 -0.62988,-0.285812 z m -4.30546,-0.786826 c 0.09186,-0.196084 0.189412,-0.29147 0.216776,-0.211977 0.07075,0.205544 -0.08781,0.56849 -0.248365,0.56849 -0.07571,0 -0.06179,-0.157206 0.03159,-0.356513 z m 6.605513,0.934489 c 0.07114,0 0.227709,-0.150123 0.347931,-0.333603 0.198534,-0.302999 0.19237,-0.385021 -0.0672,-0.894147 -0.157179,-0.308296 -0.351576,-0.626335 -0.431995,-0.706757 -0.08042,-0.08042 -0.146214,-0.2878 -0.146214,-0.460861 0,-0.173049 -0.09046,-0.389717 -0.201024,-0.481476 -0.45377,-0.376594 -0.590667,-2.2827906 -0.195316,-2.7196486 0.138863,-0.153444 0.214554,-0.316903 0.168206,-0.363253 -0.04635,-0.04636 -0.0032,-0.236142 0.09583,-0.421758 0.178637,-0.334739 0.176144,-0.334439 -0.306177,0.0367 -0.411513,0.316647 -0.488677,0.469615 -0.501854,0.994858 -0.01152,0.458774 -0.10108,0.6899196 -0.343362,0.8861136 -0.180286,0.145983 -0.283298,0.337421 -0.228916,0.425412 0.05438,0.08799 0.05417,0.577479 -4.33e-4,1.087747 l -0.09936,0.927755 h -0.715509 c -0.502711,0 -0.740242,-0.06446 -0.798677,-0.216739 -0.04574,-0.119207 -0.152374,-0.216744 -0.236954,-0.216744 -0.183271,0 -0.682267,0.431157 -0.682267,0.589516 0,0.167965 2.547234,1.591035 3.230835,1.804984 0.329048,0.102982 0.684865,0.159041 0.790705,0.124575 0.105795,-0.03446 0.250597,-0.06267 0.321736,-0.06267 z m 3.53757,-0.0096 c 0.14382,-0.232708 0.05155,-0.270106 -1.030517,-0.417673 -0.54909,-0.0749 -1.144648,-0.179527 -1.323459,-0.232533 -0.257591,-0.07635 -0.325113,-0.03883 -0.325113,0.180569 0,0.152319 -0.07803,0.354973 -0.173393,0.450337 -0.134861,0.134864 0.152232,0.173393 1.291922,0.173393 0.881951,0 1.503234,-0.06135 1.56056,-0.154104 z M 4.146174,9.735322 C 5.0862665,9.435589 5.2852691,9.291593 5.7913075,8.544953 6.489251,7.51516 6.7562517,6.946954 6.763851,6.47527 6.767451,6.252775 6.859688,5.875667 6.9688571,5.6372534 c 0.1731252,-0.378091 0.1999884,-0.392901 0.2102243,-0.115887 0.010873,0.2942166 0.046306,0.3057506 0.4813428,0.156698 0.5598645,-0.191819 1.1559494,-0.558588 1.0614383,-0.6531 -0.037076,-0.03708 -0.2161301,0.03675 -0.3978966,0.164066 -0.5830026,0.408351 -0.5738703,0.247622 0.01622,-0.285491 0.3147235,-0.284332 0.617133,-0.658212 0.6720214,-0.83084 0.097531,-0.306746 0.1023622,-0.307314 0.2127556,-0.0249 0.09893,0.2531 0.1142201,0.240812 0.1231148,-0.09896 C 9.3615287,3.4349234 9.1201623,2.8222574 8.7475211,2.4244524 8.3945375,2.0476284 7.5833312,1.8538044 7.308444,2.0806034 6.5180039,2.7327754 6.2098383,2.9464124 6.1483058,2.8848814 6.1091708,2.8457214 5.8983785,3.0838654 5.6798799,3.4140394 l -0.3972707,0.600318 0.4122492,-0.09971 c 0.3965629,-0.09591 0.4008002,-0.09149 0.1113611,0.116318 -0.3709362,0.266316 -2.0512677,0.667059 -2.797017,0.667059 -0.6985208,0 -0.9391128,0.275682 -0.8295904,0.950589 C 2.2704051,6.208103 2.0691067,6.931997 1.8588666,6.802059 1.7145651,6.712879 1.4110371,7.467518 1.4110371,7.915463 c 0,0.299634 1.1032827,1.507222 1.2463363,1.364166 C 2.7031874,9.233809 2.5689574,8.971202 2.3590833,8.696044 L 1.9774955,8.195759 2.3952976,6.627508 C 2.7242164,5.3928874 2.8714555,5.0480004 3.0874059,5.0063424 c 0.2622352,-0.05057 0.2631784,-0.04058 0.021441,0.22812 C 2.8463435,5.5262114 2.7573537,5.93199 2.9870008,5.790058 3.0590608,5.745548 3.0806488,5.851998 3.0349718,6.02666 2.9645728,6.295865 2.9387898,6.306787 2.8656836,6.09838 2.8139226,5.950824 2.6676995,6.321541 2.4999634,7.025579 L 2.2204839,8.198635 2.7188509,8.611858 C 3.3406816,9.12745 3.4651179,9.135063 3.3433914,8.650088 3.2680774,8.350011 3.2908984,8.290276 3.4490095,8.373636 3.5599398,8.432116 3.5061955,8.360526 3.3295767,8.214568 3.0168401,7.956094 3.0142056,7.929651 3.2287159,7.202027 3.4472374,6.460799 3.8674424,5.876012 3.8674424,6.313133 c 0,0.113047 -0.06047,0.26731 -0.1343774,0.342806 C 3.5881792,6.803943 3.1428859,8.02141 3.2336386,8.02141 c 0.030179,0 0.2445578,-0.40639 0.4764031,-0.903087 C 3.9608919,6.580907 4.1385565,6.332247 4.1488121,6.504221 4.1659001,6.790759 4.6208752,7.443434 4.803534,7.443434 4.855809,7.443434 4.76411,7.254585 4.5997545,7.023767 4.2059997,6.470793 4.2206674,6.426781 4.7341259,6.620588 5.0797734,6.751056 5.1479047,6.843433 5.0712299,7.077648 5.0183759,7.239092 4.9654709,7.485993 4.9536616,7.626308 4.9418546,7.766623 4.8513256,7.961692 4.7524919,8.059792 4.6095131,8.201706 4.5942873,8.179103 4.6779789,7.949164 4.8244354,7.546787 3.7308458,8.727353 3.5650129,9.150652 c -0.1550082,0.395664 -0.1705524,0.74919 -0.032942,0.74919 0.053962,0 0.330307,-0.07403 0.6141015,-0.164519 z M 3.9895171,9.28498 C 4.1758655,9.080294 4.4821744,8.874215 4.6702043,8.827025 5.0552419,8.730385 6.1793558,6.978968 6.1793558,6.475701 c 0,-0.165387 0.1225654,-0.452062 0.2723669,-0.637061 L 6.7240901,5.5022794 6.6071247,6.242196 C 6.4055799,7.517165 5.3227893,9.225327 4.6271558,9.365702 4.4079942,9.409942 4.0986353,9.493593 3.9396912,9.551623 3.6770731,9.647503 3.6816201,9.623163 3.9895192,9.28498 Z M 20.434464,9.394051 c 0.285369,-0.119234 0.921345,-0.590651 1.413279,-1.047585 0.491934,-0.45694 1.410512,-1.105688 2.041283,-1.441667 1.134073,-0.604053 1.251626,-0.88193 0.135397,-0.320048 -1.278046,0.643336 -1.476482,0.779156 -2.275787,1.557629 -0.456964,0.445051 -0.830844,0.745335 -0.830844,0.667289 0,-0.07805 0.237623,-0.494747 0.52805,-0.926008 l 0.528049,-0.784109 -0.528049,0.311556 c -0.624446,0.368435 -0.655803,0.299334 -0.15946,-0.351407 l 0.368589,-0.483246 -0.404713,-0.0044 -0.404713,-0.0044 0.405417,-0.356671 c 0.358661,-0.315533 0.538342,-0.356672 1.557957,-0.356672 1.240517,0 1.911601,-0.2019116 2.366263,-0.7119556 0.265514,-0.297854 0.290451,-0.301464 0.387203,-0.05607 0.08339,0.211508 0.10538,0.189493 0.113569,-0.113702 0.01453,-0.537896 -0.572208,-1.348831 -1.013609,-1.400909 -0.234997,-0.02774 -0.56078,0.113243 -0.918293,0.397357 -0.346522,0.275382 -0.72256,0.441162 -1.003823,0.442544 -0.343513,0.0016 -0.398545,0.03528 -0.232998,0.142281 0.192659,0.12451 0.192659,0.140211 0,0.14133 -0.262999,0.0016 -0.812835,-0.360729 -1.382963,-0.911164 -0.482061,-0.465404 -1.070488,-0.740169 -1.225225,-0.572105 -0.0576,0.06255 -0.151512,0.268183 -0.208694,0.456944 -0.08109,0.267698 -0.06083,0.316587 0.09213,0.222212 0.107854,-0.06655 -0.02157,0.153995 -0.287594,0.490088 -0.629548,0.79536 -0.895451,0.923638 -1.800403,0.868573 l -0.750289,-0.04566 -0.0442,0.6093236 c -0.03885,0.535624 -0.0039,0.61835 0.288989,0.683989 2.252671,0.504823 2.201742,0.499007 2.608975,0.297832 0.218548,-0.107962 0.39736,-0.146338 0.39736,-0.08527 0,0.215581 -0.538849,0.59525 -0.737699,0.519776 -0.447553,-0.169871 -2.211418,-0.488909 -2.322719,-0.42012 -0.29957,0.185146 0.235519,0.644537 1.004834,0.862691 0.455059,0.129037 0.981652,0.332189 1.170207,0.451445 0.284267,0.1798 0.401465,0.185457 0.686131,0.03309 0.47977,-0.256764 0.594396,-0.06686 0.139535,0.231179 -0.337794,0.221331 -0.406145,0.223696 -0.710086,0.02452 -0.383217,-0.25109 -1.846705,-0.712403 -1.945774,-0.613332 -0.111199,0.111196 0.09772,0.515369 0.292011,0.56493 0.101142,0.02583 0.64652,0.194053 1.211952,0.373896 0.618046,0.196576 1.165505,0.288832 1.372698,0.23132 0.332686,-0.09234 0.334911,-0.08789 0.06416,0.128563 -0.362167,0.28952 -0.497924,0.282874 -1.257055,-0.06159 -0.346434,-0.157201 -0.743669,-0.287243 -0.882745,-0.288991 -0.426733,-0.0055 -0.280439,0.432277 0.216742,0.648371 0.615033,0.267321 1.295045,0.26684 1.936954,-0.0011 z M 18.316892,9.032863 c -0.186787,-0.120714 -0.182972,-0.140375 0.0276,-0.142286 0.134386,-0.0011 0.284524,0.06282 0.33364,0.142286 0.113021,0.182869 -0.07826,0.182869 -0.361235,0 z M 17.955655,8.165896 c -0.235585,-0.101234 -0.243836,-0.126061 -0.04465,-0.13434 0.134386,-0.0056 0.284524,0.05487 0.333641,0.13434 0.102686,0.166152 0.09767,0.166152 -0.28899,0 z M 17.488798,7.0543 c 0.140589,-0.03665 0.335657,-0.03424 0.433484,0.0055 0.09783,0.03959 -0.0172,0.06955 -0.255615,0.06661 C 17.428251,7.12371 17.348209,7.09108 17.488798,7.05444 Z M 17.016442,5.6913574 c 0,-0.160549 0.362943,-0.319115 0.568487,-0.248365 0.0795,0.02736 -0.01589,0.124914 -0.211975,0.216777 -0.199308,0.09338 -0.356512,0.107308 -0.356512,0.03157 z m 1.746696,-0.30698 c 0.03351,-0.01988 0.281983,-0.231195 0.552162,-0.469609 0.270177,-0.238415 0.438775,-0.335947 0.374659,-0.216739 -0.221952,0.412665 -0.551844,0.722468 -0.769319,0.722468 -0.120137,0 -0.191013,-0.01627 -0.157502,-0.0361 z m 1.648924,-1.621083 c -0.238416,-0.19543 -0.368461,-0.357338 -0.288989,-0.359801 0.07947,-0.0027 0.339562,0.155415 0.577978,0.350839 0.238415,0.195429 0.36846,0.357338 0.288988,0.359801 -0.07947,0.0027 -0.339562,-0.155415 -0.577977,-0.350839 z M 1.6263915,8.67937 1.0869464,8.021049 1.4050558,7.170427 C 1.8040375,6.103564 1.9944382,5.2760054 1.840917,5.2760054 c -0.064716,0 -0.2301053,0.341369 -0.3675322,0.7585936 C 1.3359578,6.45183 1.1061037,7.014307 0.96259786,7.284555 0.66121836,7.852106 0.72004756,8.024527 1.5154743,8.904967 2.2123846,9.676368 2.2989983,9.500195 1.6263915,8.67937 Z M 13.033046,8.09365 13.418786,7.587915 H 11.027274 8.6357616 v 0.448944 c 0,0.331015 0.054558,0.428006 0.2077045,0.369238 1.1104702,-0.426128 1.9832749,-0.430633 3.1085229,-0.01606 0.697826,0.257108 0.648575,0.270613 1.081057,-0.296402 z M 15.07633,7.892017 c -0.274902,-0.10769 -0.274902,-0.110437 0,-0.216903 0.274518,-0.106325 0.274489,-0.110732 -0.0021,-0.31426 -0.277648,-0.204337 -0.277648,-0.206516 0,-0.215581 0.240813,-0.0079 0.232614,-0.02834 -0.05797,-0.144771 -0.46069,-0.184595 -0.600763,-0.06249 -0.600763,0.523697 0,0.466698 0.02881,0.496577 0.469607,0.487047 0.366337,-0.0079 0.40838,-0.03413 0.191182,-0.119229 z M 14.126552,7.587915 c 0,-0.07947 -0.06886,-0.144493 -0.153023,-0.144493 -0.08416,0 -0.112835,0.06502 -0.06372,0.144493 0.04912,0.07947 0.117977,0.144498 0.153023,0.144498 0.03504,0 0.06372,-0.06503 0.06372,-0.144498 z M 11.959135,6.648701 c 0.464759,-0.357621 0.89096,-0.650222 0.947113,-0.650222 0.05615,0 -0.245604,0.276343 -0.670575,0.614102 -0.681295,0.541473 -0.734141,0.619645 -0.44686,0.660992 0.239251,0.03446 0.976968,-0.474907 2.77672,-1.9171296 1.347999,-1.080216 2.450909,-2.031728 2.450909,-2.114471 0,-0.193938 -0.199203,-0.0719 -1.083709,0.663936 -0.39736,0.330572 -1.047585,0.818274 -1.444945,1.083777 l -0.722472,0.482738 0.686349,-0.742244 c 0.377491,-0.408231 0.686348,-0.811503 0.686348,-0.896157 0,-0.08465 0.268371,-0.445061 0.596381,-0.800908 0.328009,-0.355847 0.52534,-0.647001 0.438512,-0.647001 -0.230706,0 -1.15201,0.84207 -1.246284,1.139099 -0.04439,0.139878 -0.991988,0.990057 -2.105758,1.889273 -1.113772,0.8992196 -2.059733,1.6910846 -2.102137,1.7596936 -0.215705,0.34902 0.495465,0.04773 1.240408,-0.525478 z m 2.320328,0.192606 c 0.313198,-0.25169 0.536368,-0.490706 0.495937,-0.531135 -0.09983,-0.09983 0.518354,-0.7453566 0.712912,-0.7444606 0.08549,4.37e-4 -0.03964,0.160614 -0.278052,0.3560376 -0.238415,0.195429 -0.363539,0.357665 -0.278052,0.360522 0.08549,0.0027 0.308143,-0.15736 0.494794,-0.356038 0.186651,-0.1986846 0.282514,-0.3612366 0.21303,-0.3612366 -0.06948,0 -0.0483,-0.07803 0.04706,-0.173394 0.09537,-0.09537 0.173393,-0.231025 0.173393,-0.301459 0,-0.07043 -0.536436,0.311633 -1.192079,0.8490376 -1.730423,1.418363 -1.674948,1.359748 -1.286818,1.359748 0.180634,0 0.584679,-0.205931 0.897875,-0.457622 z m 1.003045,-0.120359 c 0,-0.07947 -0.06119,-0.144493 -0.135967,-0.144493 -0.07478,0 -0.176153,0.06502 -0.22527,0.144493 -0.04912,0.07947 0.01206,0.144498 0.135967,0.144498 0.123898,0 0.22527,-0.06503 0.22527,-0.144498 z M 2.1131987,5.998479 c 0,-0.136618 -0.045907,-0.109912 -0.124183,0.07225 -0.068301,0.158943 -0.124183,0.386523 -0.124183,0.50573 0,0.136618 0.045907,0.109907 0.124183,-0.07225 0.068301,-0.158943 0.124183,-0.386523 0.124183,-0.50573 z M 18.554803,4.8764354 c 0.09112,-0.058391 0.247546,-0.398761 0.347622,-0.756388 0.164554,-0.588025 0.190951,-0.615669 0.275979,-0.288985 l 0.09402,0.361237 0.09824,-0.361237 c 0.140457,-0.516483 0.124682,-1.124998 -0.03167,-1.221629 -0.160974,-0.09949 -1.763006,1.267399 -1.945738,1.660142 -0.244268,0.525008 0.600516,0.966366 1.16155,0.60686 z m 3.826366,6.9505736 c 0.155353,-0.188205 0.15899,-0.253477 0.01679,-0.301333 -0.198317,-0.06675 -0.102857,-0.325396 0.120094,-0.325396 0.07604,0 0.123398,0.195064 0.105232,0.433484 -0.01989,0.261035 -0.114067,0.433483 -0.236729,0.433483 -0.173109,0 -0.173918,-0.0361 -0.0054,-0.240238 z m 0.559546,-0.193245 c 0,-0.301836 0.06147,-0.437077 0.180618,-0.397363 0.09934,0.03309 0.180618,0.211927 0.180618,0.397363 0,0.185435 -0.08128,0.364246 -0.180618,0.397357 -0.119144,0.0397 -0.180618,-0.09553 -0.180618,-0.397357 z m 0.577978,0.317886 c 0,-0.06358 0.07803,-0.193622 0.173393,-0.288991 0.134861,-0.134859 0.132967,-0.173393 -0.0085,-0.173393 -0.100056,0 -0.141734,-0.06502 -0.09262,-0.144493 0.178362,-0.288598 0.348896,-0.1344 0.319295,0.288701 -0.01667,0.238256 -0.111585,0.433325 -0.210925,0.433484 -0.09934,1.58e-4 -0.18062,-0.05172 -0.180621,-0.115308 z m 0.630231,-0.101147 c -0.103351,-0.269331 0.03267,-0.650223 0.232201,-0.650223 0.08197,0 0.149029,0.195064 0.149029,0.433484 0,0.453733 -0.238297,0.589215 -0.38123,0.216739 z m -1.786277,-1.119832 c 5e-5,-0.0596 0.504014,-0.09863 1.119922,-0.08672 1.139755,0.02201 1.004841,0.07946 -0.361326,0.153804 -0.417277,0.02272 -0.758645,-0.0075 -0.758596,-0.06708 z m 0.712811,-0.404583 c -0.108574,-0.723938 -0.107892,-1.00424 0.0025,-1.00424 0.07411,0 0.181146,0.07507 0.237851,0.166824 0.06388,0.103353 0.03964,0.127596 -0.06372,0.06372 -0.219646,-0.135744 -0.21484,0.09713 0.0066,0.318541 0.134861,0.134859 0.134861,0.211928 0,0.346787 -0.09537,0.09537 -0.177781,0.144132 -0.183145,0.108372 z M 22.362737,9.755332 c 0,-0.238415 0.04891,-0.433484 0.108686,-0.433484 0.05978,0 0.11128,0.195069 0.11445,0.433484 0.0032,0.23842 -0.04574,0.433483 -0.108686,0.433483 -0.06295,0 -0.11445,-0.195063 -0.11445,-0.433483 z m 1.269628,0 c -0.03932,-0.267905 5e-5,-0.433484 0.10307,-0.433484 0.10302,0 0.142389,0.165579 0.103069,0.433484 -0.03499,0.23842 -0.08137,0.433483 -0.103069,0.433483 -0.0217,0 -0.06808,-0.195063 -0.10307,-0.433483 z m 0.489608,0.04882 c 0.05959,-0.520453 0.480429,-0.564935 0.480429,-0.05079 0,0.232888 -0.09276,0.377118 -0.263687,0.410038 -0.213213,0.04107 -0.254701,-0.02769 -0.216742,-0.359254 z M 9.8514332,6.070725 C 9.9967134,5.832311 10.686258,5.0845514 11.383755,4.4090384 c 0.963139,-0.93278 1.31176,-1.375105 1.449373,-1.838947 C 13.213217,1.2889784 12.494007,0.40939641 11.405227,0.82378741 10.811369,1.0498104 10.55993,1.5394894 10.716799,2.1645084 c 0.08716,0.34729 0.155831,0.388707 0.548794,0.331037 0.406313,-0.05964 0.423723,-0.04729 0.182499,0.129065 -0.664731,0.486064 -1.5600447,0.01748 -1.5600447,-0.816473 0,-1.08401699 1.5872147,-1.77174699 2.8608507,-1.23958499 0.899918,0.37601 1.229177,1.68353799 0.657056,2.60925099 -0.157914,0.255508 -0.691664,0.750851 -1.186112,1.100767 -0.494448,0.34991 -1.289047,0.993825 -1.765776,1.430918 C 9.7837268,6.324098 9.6471512,6.405967 9.8514332,6.070725 Z"
       id="path1118"
       sodipodi:nodetypes="sscccssscssssssssssssssscccssssssssssssssssssscscccccssscscssssscsscscccssssssccssssssssscssscsssscssssssscssscsssssssssssscsssssscccsssccssscsscsscsscscssssssssssssssssssssscsssssssssscsscssssssscsssssssscsssssssssscsscsscccssccscsssscssccsscssccssscssccccssssssssssssssssssccssssssssssssssssscssssssssssssscsssssssscssccssscssssssssssssssssssssssssscssssscsssssscsscccssssssscscsssssscscsssssscscscsssscsccscssssssccccccsscccsssccscscsscssssssccccssssccssssssccsssssssscsssscsssssssssscscssssssssssssssssssssscssssssssssssssssssssssssssssscsscsssssccssssssssssssssssssssscssssss" />
    <rect
       style="vector-effect:non-scaling-stroke;fill:none;stroke:#000000;stroke-width:0.000700042;stroke-linecap:round;-inkscape-stroke:hairline;paint-order:stroke markers fill"
       id="rect2545"
       width="26.458332"
       height="18.616581"
       x="0"
       y="0"
       rx="3.9548064e-07"
       ry="3.9548064e-07" />
  </g>
</svg>
